# xmcd
#
# Track frame offsets:
#	150
#	22875
#	41103
#	59469
#	75284
#	95665
#	110514
#	128355
#	150891
#	168447
#
# Disc length: 2478 seconds
#
# Revision: 1
# Processed by: cddbd v1.4PL0 Copyright (c) Steve Scherf et al.
# Submitted via: audiograbber 1.80
#
DISCID=6a09ac0a
DTITLE=Cristian Castro - Colección de oro Vol I
DYEAR=1900
DGENRE=
TTITLE0=Nunca voy a olvidarte
TTITLE1=No podrás
TTITLE2=Lo voy a intentar
TTITLE3=El deseo de oir tu voz
TTITLE4=Mujer especial
TTITLE5=Solo dame una noche
TTITLE6=Agua nueva
TTITLE7=Amor
TTITLE8=Soy
TTITLE9=Con tu amor
EXTD=
EXTT0=
EXTT1=
EXTT2=
EXTT3=
EXTT4=
EXTT5=
EXTT6=
EXTT7=
EXTT8=
EXTT9=
PLAYORDER=
